<?xml version="1.0"?>
<svg xmlns="http://www.w3.org/2000/svg" xmlns:xlink="http://www.w3.org/1999/xlink" xmlns:svgjs="http://svgjs.com/svgjs" version="1.1" width="512" height="512" x="0" y="0" viewBox="0 0 512.002 512.002" style="enable-background:new 0 0 512 512" xml:space="preserve" class=""><g>
<g xmlns="http://www.w3.org/2000/svg">
	<path style="" d="M256.001,10c132.38,0,239.695,101.209,239.695,226.053c0,29.98-6.195,58.596-17.438,84.773   c10.542,10.43,17.096,24.879,17.096,40.787v0.004c0,31.59-25.848,57.436-57.439,57.436h-50.841v59.516   c0,12.889-10.543,23.432-23.431,23.432H144.559c-12.888,0-23.431-10.543-23.431-23.432v-59.516H74.087   c-31.592,0-57.439-25.846-57.439-57.436v-0.004c0-15.908,6.554-30.357,17.096-40.787c-11.242-26.178-17.438-54.793-17.438-84.773   C16.306,111.209,123.621,10,256.001,10z" fill="#efeffa" data-original="#efeffa" class=""/>
	<g>
		<path style="" d="M105.589,266.813c1.339-21.779,15.331-40.135,34.717-47.809c-2.01-2.025-4.199-3.902-6.531-5.598    c-18.023-13.096-40.592-12.76-50.406,0.748c-9.814,13.51-3.159,35.076,14.865,48.17    C100.569,264.022,103.034,265.525,105.589,266.813z" fill="#e4007c" data-original="#ff974a" class=""/>
		<path style="" d="M140.315,321.478c-20.299-8.004-33.433-26.984-34.739-47.793c-2.549,1.285-5.011,2.787-7.343,4.483    c-18.023,13.094-24.68,34.662-14.864,48.17c9.814,13.508,32.382,13.844,50.405,0.748    C136.111,325.389,138.304,323.51,140.315,321.478z" fill="#e4007c" data-original="#ff974a" class=""/>
		<path style="" d="M203.036,305.344c-13.885,16.832-35.994,23.457-56.188,18.27c0.434,2.822,1.102,5.627,1.993,8.369    c6.885,21.188,25.339,34.182,41.22,29.022s23.172-26.52,16.288-47.707C205.457,310.549,204.347,307.885,203.036,305.344z" fill="#e4007c" data-original="#ff974a" class=""/>
		<path style="" d="M207.073,240.705c11.719,18.408,11.188,41.482,0.014,59.084c2.817,0.459,5.691,0.689,8.574,0.691    c22.279,0,40.34-13.537,40.34-30.234s-18.061-30.232-40.34-30.232C212.774,240.014,209.896,240.246,207.073,240.705z" fill="#e4007c" data-original="#ff974a" class=""/>
		<path style="" d="M146.848,216.893c21.126-5.457,42.907,2.178,56.195,18.244c1.308-2.537,2.415-5.199,3.307-7.941    c6.884-21.188-0.408-42.547-16.288-47.707c-15.881-5.16-34.335,7.834-41.22,29.021    C147.95,211.258,147.281,214.066,146.848,216.893z" fill="#e4007c" data-original="#ff974a" class=""/>
	</g>
	<path style="" d="M160.573,325.336c30.342,0,55.089-24.748,55.089-55.09s-24.747-55.09-55.089-55.09   c-30.343,0-55.09,24.748-55.09,55.09S130.231,325.336,160.573,325.336z" fill="#f9f871" data-original="#676e83" class=""/>
	<g>
		<path style="" d="M406.413,266.813c-1.339-21.779-15.331-40.135-34.717-47.807c2.01-2.027,4.199-3.904,6.531-5.6    c18.023-13.094,40.592-12.76,50.406,0.748c9.814,13.51,3.159,35.076-14.865,48.172    C411.433,264.023,408.968,265.527,406.413,266.813z" fill="#e4007c" data-original="#ff974a" class=""/>
		<path style="" d="M371.687,321.478c20.299-8.004,33.433-26.984,34.739-47.791c2.549,1.283,5.011,2.785,7.343,4.48    c18.023,13.096,24.68,34.662,14.864,48.17c-9.814,13.51-32.382,13.844-50.405,0.748    C375.891,325.389,373.698,323.51,371.687,321.478z" fill="#e4007c" data-original="#ff974a" class=""/>
		<path style="" d="M308.966,305.344c13.885,16.832,35.994,23.457,56.188,18.27c-0.435,2.822-1.103,5.627-1.993,8.369    c-6.885,21.188-25.339,34.182-41.22,29.022s-23.172-26.518-16.288-47.707C306.545,310.551,307.655,307.885,308.966,305.344z" fill="#e4007c" data-original="#ff974a" class=""/>
		<path style="" d="M304.929,240.707c-11.719,18.406-11.188,41.48-0.014,59.082c-2.817,0.459-5.691,0.691-8.574,0.691    c-22.279,0-40.34-13.537-40.34-30.234s18.061-30.232,40.34-30.232C299.229,240.014,302.106,240.246,304.929,240.707z" fill="#e4007c" data-original="#ff974a" class=""/>
		<path style="" d="M365.154,216.893c-21.126-5.455-42.907,2.18-56.195,18.246c-1.308-2.539-2.415-5.201-3.307-7.941    c-6.884-21.189,0.408-42.549,16.288-47.709c15.881-5.158,34.335,7.834,41.22,29.023    C364.052,211.258,364.721,214.066,365.154,216.893z" fill="#e4007c" data-original="#ff974a" class=""/>
	</g>
	<path style="" d="M351.43,325.336c30.343,0,55.089-24.746,55.089-55.09c0-30.342-24.746-55.088-55.089-55.088   s-55.089,24.746-55.089,55.088C296.341,300.59,321.087,325.336,351.43,325.336z" fill="#f9f871" data-original="#676e83" class=""/>
</g>
<path xmlns="http://www.w3.org/2000/svg" d="M505.696,236.053c0-63.162-26.047-122.513-73.344-167.118C385.216,24.481,322.587,0,256.001,0S126.786,24.481,79.65,68.935  C32.353,113.54,6.306,172.891,6.306,236.053c0,28.508,5.304,56.304,15.773,82.722c-9.997,12.066-15.432,27.042-15.432,42.843  c0,37.184,30.253,67.436,67.439,67.436h37.041v49.516c0,18.435,14.997,33.432,33.431,33.432h219.085  c18.434,0,33.431-14.997,33.431-33.432v-49.516h40.841c37.186,0,67.439-30.252,67.439-67.439c0-15.797-5.435-30.773-15.432-42.839  C500.393,292.356,505.696,264.56,505.696,236.053z M469.07,316.88c-1.622,3.778-0.767,8.164,2.155,11.055  c9.111,9.015,14.129,20.975,14.129,33.683c0,26.156-21.281,47.436-47.439,47.436h-50.841c-5.523,0-10,4.478-10,10v59.516  c0,7.406-6.025,13.432-13.431,13.432h-30.206V458.16c0-5.522-4.477-10-10-10s-10,4.478-10,10V492h-47.436v-33.842  c0-5.522-4.477-10-10-10c-5.523,0-10,4.478-10,10V492h-47.436v-33.842c0-5.522-4.477-10-10-10s-10,4.478-10,10V492h-34.006  c-7.406,0-13.431-6.025-13.431-13.432v-59.516c0-5.522-4.477-10-10-10H74.087c-26.158,0-47.439-21.279-47.439-47.439  c0-12.704,5.018-24.664,14.129-33.679c2.922-2.891,3.777-7.276,2.155-11.055C31.9,291.19,26.306,263.996,26.306,236.052  C26.306,116.921,129.347,20,256.001,20s229.695,96.921,229.695,216.053C485.696,263.997,480.103,291.191,469.07,316.88z" fill="#000000" data-original="#000000" style="" class=""/>
<path xmlns="http://www.w3.org/2000/svg" d="M90.239,130.511c1.83,1.437,4.005,2.132,6.165,2.132c2.966,0,5.902-1.313,7.875-3.828  c9.118-11.624,19.586-22.203,31.113-31.443c4.309-3.455,5.002-9.748,1.547-14.058c-3.454-4.31-9.748-5.002-14.057-1.548  c-12.723,10.199-24.276,21.876-34.34,34.705C85.134,120.816,85.894,127.103,90.239,130.511z" fill="#000000" data-original="#000000" style="" class=""/>
<path xmlns="http://www.w3.org/2000/svg" d="M154.218,82.393c1.698,0,3.42-0.434,4.996-1.345l0.347-0.2c4.79-2.748,6.446-8.859,3.698-13.65s-8.858-6.447-13.65-3.698  l-0.405,0.233c-4.782,2.764-6.416,8.881-3.652,13.662C147.405,80.602,150.764,82.393,154.218,82.393z" fill="#000000" data-original="#000000" style="" class=""/>
<path xmlns="http://www.w3.org/2000/svg" d="M372.579,205.155c-4.015-12.176-11.426-22.543-20.898-29.213c-10.272-7.232-22.239-9.405-32.831-5.965  c-21.027,6.833-31.211,33.729-22.789,60.042c-16.375,0.072-30.924,6.42-40.06,16.186c-9.135-9.766-23.685-16.113-40.06-16.186  c3.91-12.211,4.008-24.955,0.265-35.919c-4.059-11.889-12.462-20.681-23.055-24.123c-10.593-3.441-22.559-1.268-32.831,5.965  c-9.473,6.671-16.884,17.039-20.897,29.214c-22.423-16.141-51.148-14.767-64.145,3.12c-12.994,17.887-5.426,45.63,16.854,61.971  c-22.28,16.339-29.849,44.083-16.853,61.97c6.929,9.535,18.326,14.379,30.857,14.378c10.976,0,22.82-3.722,33.287-11.259  c4.014,12.177,11.425,22.545,20.898,29.214c7.075,4.982,14.953,7.564,22.633,7.564c3.47,0,6.901-0.527,10.198-1.599  c10.593-3.442,18.996-12.234,23.055-24.123c3.744-10.965,3.645-23.709-0.265-35.917c16.374-0.072,30.924-6.42,40.059-16.187  c9.135,9.767,23.685,16.114,40.06,16.187c-8.421,26.313,1.763,53.207,22.789,60.04c3.32,1.078,6.712,1.594,10.111,1.594  c18.125,0,36.332-14.676,43.619-36.771c10.19,7.337,21.998,11.356,33.364,11.355c0.237,0,0.477-0.002,0.714-0.005  c12.56-0.186,23.519-5.462,30.065-14.471c6.547-9.011,8.178-21.063,4.473-33.067c-3.417-11.069-10.987-21.321-21.326-28.903  c22.28-16.338,29.849-44.081,16.854-61.97c-6.546-9.01-17.505-14.285-30.066-14.472  C395.066,193.673,382.985,197.666,372.579,205.155z M396.52,270.246c0,24.862-20.227,45.09-45.089,45.09  c-24.863,0-45.09-20.228-45.09-45.09s20.227-45.09,45.09-45.09C376.293,225.156,396.52,245.384,396.52,270.246z M325.031,188.999  c6.223-2.022,12.155,1.197,15.136,3.296c4.296,3.025,8.049,7.546,10.795,12.873c-13.939,0.1-26.843,4.607-37.402,12.189  C311.513,204.097,316.104,191.899,325.031,188.999z M115.483,270.246c0-24.862,20.227-45.09,45.09-45.09  c24.862,0,45.089,20.228,45.089,45.09s-20.227,45.09-45.089,45.09S115.483,295.108,115.483,270.246z M171.836,192.295  c2.981-2.1,8.911-5.319,15.135-3.296s9.13,8.113,10.308,11.564c1.701,4.981,2.079,10.858,1.162,16.793  c-10.559-7.581-23.461-12.088-37.4-12.188C163.787,199.842,167.54,195.32,171.836,192.295z M91.459,220.032  c5.517-7.593,18.531-8.191,30.508-2.15c-10.678,7.893-18.854,18.971-23.141,31.815C89.392,240.174,85.946,227.621,91.459,220.032z   M91.459,320.46c-5.514-7.588-2.067-20.142,7.368-29.664c4.287,12.845,12.463,23.922,23.14,31.815  C109.99,328.65,96.977,328.053,91.459,320.46z M197.279,339.93c-1.178,3.45-4.083,9.541-10.308,11.564  c-6.223,2.021-12.155-1.196-15.136-3.296c-4.296-3.025-8.049-7.546-10.795-12.873c13.939-0.1,26.842-4.606,37.401-12.188  C199.357,329.071,198.98,334.948,197.279,339.93z M222.618,289.913c1.972-6.208,3.044-12.813,3.044-19.667  c0-6.853-1.071-13.457-3.043-19.665c13.223,2.161,23.382,10.289,23.382,19.665C246.001,279.623,235.842,287.752,222.618,289.913z   M266.001,270.246c0-9.377,10.159-17.504,23.383-19.665c-1.972,6.208-3.043,12.812-3.043,19.665c0,6.854,1.072,13.459,3.044,19.667  C276.161,287.752,266.001,279.623,266.001,270.246z M325.031,351.493c-8.928-2.9-13.518-15.098-11.471-28.359  c10.56,7.583,23.464,12.092,37.405,12.19C344.824,347.239,333.953,354.397,325.031,351.493z M420.543,320.46  c-3.847,5.294-10.537,6.175-14.183,6.23c-5.248,0.055-10.954-1.389-16.316-4.084c10.673-7.892,18.846-18.966,23.131-31.807  c4.219,4.258,7.36,9.227,8.91,14.248C423.16,308.531,424.389,315.166,420.543,320.46z M420.544,220.032  c5.514,7.589,2.067,20.144-7.367,29.665c-4.286-12.845-12.462-23.922-23.139-31.814c5.364-2.707,11.075-4.167,16.322-4.08  C410.006,213.857,416.697,214.738,420.544,220.032z" fill="#000000" data-original="#000000" style="" class=""/>
<g xmlns="http://www.w3.org/2000/svg">
</g>
<g xmlns="http://www.w3.org/2000/svg">
</g>
<g xmlns="http://www.w3.org/2000/svg">
</g>
<g xmlns="http://www.w3.org/2000/svg">
</g>
<g xmlns="http://www.w3.org/2000/svg">
</g>
<g xmlns="http://www.w3.org/2000/svg">
</g>
<g xmlns="http://www.w3.org/2000/svg">
</g>
<g xmlns="http://www.w3.org/2000/svg">
</g>
<g xmlns="http://www.w3.org/2000/svg">
</g>
<g xmlns="http://www.w3.org/2000/svg">
</g>
<g xmlns="http://www.w3.org/2000/svg">
</g>
<g xmlns="http://www.w3.org/2000/svg">
</g>
<g xmlns="http://www.w3.org/2000/svg">
</g>
<g xmlns="http://www.w3.org/2000/svg">
</g>
<g xmlns="http://www.w3.org/2000/svg">
</g>
</g></svg>
