<svg id="Capa_1" enable-background="new 0 0 511.998 511.998" height="512" viewBox="0 0 511.998 511.998" width="512" xmlns="http://www.w3.org/2000/svg"><g><g><g><path d="m174.787 339.845 174.609 80.829c21.812 10.097 46.79-.744 55.212-21.937l10.639 4.925c24.7 11.434 53.473-3.971 57.652-30.865 3.264-21.003-10.088-41.011-30.736-46.056l-1.221-.298 13.287 1.476c29.903 3.321 54.661-22.92 49.607-52.579-3.515-20.632-20.577-35.798-40.811-37.487 15.923-12.572 23.265-34.679 15.252-55.49-9.036-23.468-34.529-36.117-58.683-29.118l-28.451 8.245c13.854-15.087 14.854-39.243-.102-55.451-14.414-15.621-38.386-17.613-55.18-4.585l-38.814 30.108c8.056-19.074.6-42.38-19.255-52.431-18.964-9.6-42.12-3.09-53.304 14.985l-101.064 163.335z" fill="#9a5e5f"/><g><path d="m221.051 287.878c.438 1.026.903 2.046 1.397 3.061 14.977 30.787 51.54 45.224 83.518 32.993 35.397-13.538 52.218-53.59 37.542-88.172-.023-.054-.046-.107-.069-.161-3.565-8.34-13.344-12.08-21.693-8.537l-91.877 38.992c-8.461 3.592-12.425 13.37-8.818 21.824z" fill="#845152"/></g><path d="m454.224 327.92-13.28-1.48 1.22.3c18.56 4.53 31.22 21.15 31.22 39.72 0 2.1-.16 4.21-.49 6.34-4.17 26.89-32.95 42.29-57.65 30.86l-10.64-4.92c-8.42 21.19-33.4 32.03-55.21 21.93l-27.88-12.91c42.2 5.76 62.02-18.97 62.02-18.97 32.53 6.6 43.1-7.75 49.85-23.6 8.94-21.02-11.87-44.8-11.87-44.8 82.98-23.82 24.67-82.54 24.67-82.54 9.43-25.6 0-47.59-14.25-56.77-28.52-18.37-75.39-6.45-75.39-6.45s22.96-23.75 10.15-46.94c-8.51-15.41-26.35-18.9-40.1-19.05l9.27-7.19c7.43-5.77 16.28-8.59 25.07-8.59 11.07 0 22.07 4.47 30.11 13.18 14.95 16.2 13.95 40.36.1 55.45l28.45-8.25c4.49-1.3 9.02-1.92 13.49-1.92 19.57 0 37.84 11.93 45.19 31.04 8.02 20.81.67 42.92-15.25 55.49 10.11.85 19.44 5.06 26.67 11.64 7.24 6.59 12.38 15.53 14.14 25.85 5.05 29.66-19.7 55.9-49.61 52.58z" fill="#845152"/><path d="m282.669 367.742c-42.533 0-81.035-25.168-98.102-64.126l-.124-.282c-3.083-7.037-3.72-14.832-2.267-22.376.565-2.932.773-5.99.575-9.13-1.151-18.277-16.212-32.951-34.512-33.646-18.304-.696-33.7 12.288-36.809 29.541l-17.926.004s-80.425-2.656-85.713 57.79c-3.875 44.298 30.995 54.656 49.904 57.028 5.75.722 10.772-3.905 10.593-9.698-.433-14.02 2.898-37.295 29.8-37.295 38.496 0 34.161 64.16 100.03 64.16h-71.221c-12.897 0-23.352 10.455-23.352 23.352 0 7.858 6.37 14.228 14.228 14.228h164.895c17.281 0 31.291-14.009 31.291-31.291v-6.969c0-17.281-14.009-31.29-31.29-31.29z" fill="#fddd45"/><path d="m313.954 399.03v6.97c0 17.28-14 31.29-31.29 31.29h-31.89c17.28 0 31.29-14.01 31.29-31.29v-6.97c0-17.28-14.01-31.29-31.29-31.29-42.53 0-81.03-25.17-98.1-64.12l-.12-.29c-3.09-7.03-3.72-14.83-2.27-22.37.56-2.93.77-5.99.57-9.13-.82-13.11-8.8-24.36-19.99-29.94 5.2-2.58 11.12-3.95 17.38-3.71 18.3.7 33.36 15.37 34.51 33.65.2 3.14-.01 6.2-.58 9.13-1.45 7.54-.81 15.34 2.27 22.37l.12.29c17.07 38.95 55.57 64.12 98.1 64.12 17.29 0 31.29 14.01 31.29 31.29z" fill="#f8c52d"/></g><g><g><g><g><g><path d="m213.16 269.261c.417.977.86 1.949 1.331 2.916 14.266 29.327 49.096 43.079 79.557 31.428 33.718-12.896 49.742-51.048 35.762-83.991-.022-.051-.043-.102-.065-.153-3.396-7.944-12.711-11.508-20.664-8.132l-87.52 37.143c-8.061 3.421-11.838 12.736-8.401 20.789z" fill="#f2eff2"/></g></g><g><g><path d="m284.076 221.941c3.147 4.127 5.841 8.704 7.962 13.7 10.872 25.618 3.594 54.393-16.029 71.989 6.782-.5 13.603-2.094 20.221-4.902 32.222-13.675 47.255-50.878 33.574-83.114-.021-.05-.042-.1-.064-.15-3.395-7.945-12.711-11.508-20.664-8.132z" fill="#e1dde1"/></g></g></g><g><g><path d="m250.697 236.107c-2.104 5.281-2.212 11.359.184 17.005 4.823 11.365 17.946 16.668 29.311 11.845s16.668-17.946 11.845-29.311c-2.396-5.646-6.843-9.791-12.102-11.947z" fill="#554e55"/></g><g><path d="m280.194 264.96c-6.72 2.85-14.05 2.16-19.92-1.22 9.66-5.56 13.87-17.58 9.4-28.09-.96-2.25-2.23-4.26-3.76-6l14.02-5.95c5.26 2.15 9.71 6.3 12.1 11.95 4.83 11.36-.48 24.48-11.84 29.31z" fill="#433f43"/></g></g></g></g></g><g><path d="m321.459 399.477c0-21.389-17.401-39.235-38.791-39.235-13.458 0-26.557-2.666-38.931-7.924-3.812-1.619-8.215.158-9.836 3.97-1.62 3.813.158 8.216 3.97 9.836 14.239 6.05 29.312 9.118 44.797 9.118 13.118 0 23.791 10.672 23.791 23.791v6.969c0 13.118-10.672 23.791-23.791 23.791h-86.524c-4.142 0-7.5 3.358-7.5 7.5s3.358 7.5 7.5 7.5h86.524c18.126 0 33.383-12.498 37.618-29.328l25.959 12.017c6.513 3.015 13.417 4.527 20.333 4.527 6.041 0 12.092-1.154 17.897-3.47 9.868-3.936 18.156-11.013 23.573-19.943l4.047 1.874c13.93 6.449 29.681 5.992 43.212-1.254 13.532-7.245 22.645-20.099 25.002-35.266 1.868-12.019-.822-24.21-7.574-34.328-1.127-1.689-2.352-3.296-3.664-4.815 10.784-2.019 20.726-7.399 28.523-15.664 11.472-12.159 16.441-28.584 13.634-45.064-3.216-18.876-16.254-34.108-33.519-40.556 11.528-15.18 14.672-35.399 7.565-53.856-5.047-13.108-14.756-23.765-27.338-30.008s-26.941-7.529-40.432-3.619l-10.633 3.081c5.341-16.276 1.896-34.93-10.321-48.17-8.249-8.939-19.467-14.417-31.588-15.424-12.128-1.01-24.091 2.543-33.702 9.999l-23.562 18.277c-.704-17.053-10.415-33.212-26.522-41.366-10.853-5.494-23.279-6.708-34.987-3.414-11.709 3.292-21.683 10.801-28.083 21.145l-28.504 46.068c-2.179 3.522-1.091 8.145 2.432 10.324 3.522 2.18 8.145 1.09 10.324-2.432l28.504-46.068c7.584-12.259 21.62-17.981 35.06-15.204l-52.937 74.279c-2.404 3.374-1.619 8.057 1.754 10.46 1.32.941 2.84 1.393 4.347 1.393 2.343 0 4.651-1.095 6.114-3.147l54.596-76.605c11.277 8.76 15.931 24.056 10.98 37.761l-51.082 41.743c-3.208 2.621-3.683 7.346-1.062 10.553 1.483 1.814 3.639 2.754 5.812 2.754 1.669 0 3.348-.554 4.741-1.692l91.269-72.977c13.829-10.727 33.205-9.116 45.072 3.745 2.216 2.402 4.013 5.062 5.393 7.881l-46.644 25.284c-3.642 1.974-4.993 6.526-3.02 10.168 1.358 2.506 3.937 3.927 6.601 3.927 1.207 0 2.432-.292 3.567-.908l42.906-23.257c-.084 7.463-2.614 14.899-7.605 20.925l-58.574 22.255c-3.872 1.471-5.818 5.803-4.348 9.675 1.138 2.996 3.988 4.838 7.013 4.838.885 0 1.786-.158 2.662-.491l88.203-30.973c20.574-5.962 41.898 4.616 49.596 24.609 6.185 16.063 1.75 33.946-10.99 45.295h-89.565c-4.142 0-7.5 3.358-7.5 7.5s3.358 7.5 7.5 7.5h91.925c17.037 1.534 30.915 14.347 33.794 31.247 2.009 11.793-1.547 23.549-9.757 32.25-8.209 8.702-19.734 12.934-31.629 11.615l-12.571-1.396-78.872-24.581c-3.953-1.231-8.159.973-9.392 4.929-1.232 3.955.974 8.159 4.929 9.392l81.232 25.22c17 4.154 27.793 20.327 25.105 37.62-1.627 10.47-7.918 19.344-17.259 24.345-9.342 5.002-20.215 5.316-29.831.866l-58.649-27.577c-3.745-1.768-8.216-.164-9.983 3.583-1.768 3.746-.164 8.216 3.583 9.983l40.993 19.341c-3.729 5.521-9.103 9.898-15.423 12.419-8.583 3.424-17.949 3.162-26.372-.737z"/><path d="m177.698 306.625c6.432 14.683 15.698 27.63 27.54 38.481 3.054 2.798 7.798 2.591 10.597-.463 2.798-3.054 2.591-7.798-.463-10.597-10.292-9.431-18.345-20.682-23.933-33.438-2.376-5.424-3.113-11.915-1.896-18.232.694-3.607.928-7.315.695-11.02-1.379-21.878-19.558-39.681-41.444-40.653l34.435-55.652c2.179-3.522 1.091-8.145-2.432-10.324-3.524-2.181-8.145-1.091-10.324 2.432l-41.736 67.502c-10.699 4.944-19.214 14.117-23.094 25.563l-12.029.002c-2.036-.055-22.236-.395-43.343 6.609-30.233 10.033-47.505 30.099-49.949 58.027-2.399 27.425 9.124 42.742 19.212 50.761 11.966 9.511 26.85 13.06 37.229 14.362 4.901.616 9.813-.943 13.475-4.276 3.68-3.349 5.702-8.122 5.548-13.094-.193-6.234.415-17.652 6.646-24.08 3.579-3.69 8.7-5.484 15.657-5.484 12.233 0 18.678 8.154 29.015 22.567 6.334 8.831 13.406 18.69 23.532 26.593h-23.738c-17.012 0-30.852 13.84-30.852 30.852 0 11.98 9.747 21.728 21.728 21.728h42.081c4.142 0 7.5-3.358 7.5-7.5s-3.358-7.5-7.5-7.5h-42.081c-3.71 0-6.728-3.018-6.728-6.728 0-8.741 7.111-15.852 15.852-15.852h113.175c4.142 0 7.5-3.358 7.5-7.5s-3.358-7.5-7.5-7.5c0 0-41.26 0-41.954 0-33.48 0-46.365-17.964-58.826-35.336-10.165-14.17-20.675-28.824-41.204-28.824-11.074 0-19.965 3.379-26.426 10.043-9.572 9.873-11.195 24.474-10.87 34.984.025.799-.398 1.307-.652 1.538-.297.271-.801.577-1.51.485-21.5-2.697-46.477-13.377-43.366-48.933 1.898-21.704 15.15-36.838 39.386-44.983 19.274-6.479 38.422-5.973 38.607-5.965.083.002 10.91.002 10.91.002 1.527 8.711 6.894 17.816 14.255 23.174 4.842 3.524 10.171 5.296 15.673 5.295 4.534 0 9.185-1.204 13.773-3.62 5.523-2.909 9.512-8.071 11.23-14.537 1.957-7.363.759-15.731-3.125-21.84-2.224-3.496-6.859-4.527-10.354-2.304s-4.526 6.858-2.304 10.354c1.657 2.605 2.174 6.598 1.286 9.937-.445 1.675-1.452 3.922-3.723 5.118-5.036 2.654-9.495 2.479-13.629-.531-6.188-4.505-9.123-13.213-8.433-17.245 2.509-13.849 15.037-23.881 29.137-23.35 14.409.548 26.406 12.242 27.312 26.623.154 2.441.001 4.877-.454 7.24-1.794 9.318-.715 18.871 2.886 27.089z"/><path d="m206.084 254.346c-2.331 5.786-2.268 12.127.178 17.858.466 1.091.965 2.186 1.485 3.253 12.096 24.866 37.582 39.751 64.04 39.751 8.347 0 16.791-1.482 24.94-4.599 18.173-6.951 32.366-20.619 39.964-38.486 7.601-17.875 7.609-37.564.026-55.433l-.076-.179c-4.993-11.682-18.67-17.105-30.491-12.088l-87.52 37.144c-5.754 2.444-10.209 6.982-12.546 12.779zm71.179 3.706c-3.652 1.55-7.689 1.585-11.368.098-3.679-1.486-6.559-4.317-8.108-7.969-1.16-2.732-1.469-5.685-.926-8.543l22.771-9.664c2.433 1.595 4.342 3.869 5.501 6.601 3.2 7.54-.331 16.277-7.87 19.477zm-57.266 1.901c.837-2.077 2.432-3.702 4.493-4.576l17.334-7.357c.338 2.728 1.051 5.425 2.153 8.022 3.115 7.34 8.903 13.029 16.296 16.016 3.616 1.461 7.403 2.191 11.189 2.191 3.955 0 7.909-.797 11.66-2.389 7.34-3.115 13.028-8.903 16.016-16.296 2.988-7.394 2.917-15.508-.198-22.848-1.102-2.597-2.547-4.984-4.274-7.122l17.342-7.36c4.228-1.794 9.088.081 10.841 4.183l.055.129c5.981 14.094 5.975 29.617-.019 43.71-5.99 14.085-17.183 24.862-31.519 30.345-26.788 10.245-57.593-1.924-70.133-27.705-.412-.847-.808-1.714-1.177-2.579-.869-2.04-.89-4.301-.059-6.364z"/><path d="m293.826 172.394c1.479 0 2.973-.436 4.278-1.345l20.135-14.014c3.4-2.366 4.238-7.041 1.872-10.44-2.366-3.401-7.041-4.237-10.44-1.872l-20.135 14.014c-3.4 2.366-4.238 7.041-1.872 10.44 1.457 2.096 3.79 3.217 6.162 3.217z"/><path d="m439.211 174.992-52.983 12.563c-4.03.956-6.523 4.998-5.567 9.028.818 3.449 3.896 5.771 7.292 5.771.573 0 1.155-.066 1.737-.204l52.983-12.563c4.03-.956 6.523-4.998 5.567-9.028-.956-4.029-4.996-6.521-9.029-5.567z"/><path d="m426.419 210.961c.46 3.807 3.696 6.601 7.437 6.601.3 0 .604-.018.91-.055l15.256-1.845c4.112-.498 7.042-4.234 6.545-8.346-.498-4.112-4.229-7.042-8.346-6.545l-15.256 1.845c-4.113.497-7.043 4.233-6.546 8.345z"/><path d="m373.368 274.938c-1.139 3.982 1.166 8.134 5.148 9.274l86.145 24.645c.689.197 1.384.291 2.067.291 3.263 0 6.265-2.146 7.207-5.439 1.139-3.982-1.166-8.134-5.148-9.274l-86.145-24.645c-3.983-1.136-8.134 1.165-9.274 5.148z"/><path d="m456.893 274.514c.2.016.398.023.596.023 3.875 0 7.16-2.983 7.469-6.913.324-4.129-2.76-7.74-6.89-8.064l-30.025-2.359c-4.121-.315-7.74 2.76-8.064 6.89-.324 4.129 2.76 7.74 6.89 8.064z"/><path d="m433.864 362.784c3.076 0 5.96-1.907 7.06-4.968 1.399-3.899-.626-8.194-4.525-9.593l-56.537-20.295c-3.899-1.398-8.194.626-9.593 4.525s.626 8.194 4.525 9.593l56.537 20.295c.837.301 1.692.443 2.533.443z"/><path d="m394.849 359.393c-3.6-2.048-8.18-.788-10.227 2.814-2.047 3.601-.787 8.18 2.814 10.227l14.453 8.215c1.17.665 2.443.981 3.699.981 2.609 0 5.146-1.364 6.527-3.795 2.047-3.601.787-8.18-2.814-10.227z"/></g></g></svg>