<svg width="1590" height="1300" viewBox="0 0 1590 1300" fill="none" xmlns="http://www.w3.org/2000/svg">
<g clip-path="url(#clip0)">
<rect width="1590" height="1300" fill="white"/>
<g clip-path="url(#clip1)">
<path fill-rule="evenodd" clip-rule="evenodd" d="M961.376 1410.5V1276.44V1098.55V953.947H867.066H763.935H660.805H566.492V1159.74V1269.07V1399.54V1533.6V1622.45C566.492 1628.2 571.626 1632.93 578.011 1632.93H949.86C956.177 1632.93 961.378 1628.2 961.378 1622.45V1410.5H961.376Z" fill="#A7E9A6"/>
<path fill-rule="evenodd" clip-rule="evenodd" d="M484.096 1399.54C442.633 1399.54 408.409 1368.4 408.409 1330.68V1134.71C408.409 1097.77 375.304 1067.65 334.763 1067.65C294.157 1067.65 261.052 1097.77 261.052 1134.71V1145.25V1249.85V1330.68C261.052 1442.41 361.288 1533.6 484.096 1533.6H566.495L611.183 1476.41L566.495 1399.53H484.096V1399.54Z" fill="#A7E9A6"/>
<path fill-rule="evenodd" clip-rule="evenodd" d="M1043.78 1410.5C1166.58 1410.5 1266.82 1319.31 1266.82 1207.58V1102.98V1097.59C1266.82 1060.65 1233.71 1030.53 1193.11 1030.53C1152.5 1030.53 1119.46 1060.65 1119.46 1097.59V1207.58C1119.46 1245.36 1085.24 1276.44 1043.78 1276.44H961.376L918.992 1337.81L961.376 1410.5H1043.78V1410.5Z" fill="#A7E9A6"/>
<path fill-rule="evenodd" clip-rule="evenodd" d="M897.537 1069.15V1632.93H949.86C956.177 1632.93 961.378 1628.2 961.378 1622.45V1410.5V1276.44V1098.55V953.947H867.068H763.935H660.805H566.492V1001.79H826.457C874.24 1001.79 897.537 1021.85 897.537 1069.15Z" fill="#7FDBAE"/>
<path fill-rule="evenodd" clip-rule="evenodd" d="M1266.82 1207.58V1097.59C1266.82 1060.64 1233.71 1030.53 1193.11 1030.53C1178.04 1030.53 1163.95 1034.72 1152.24 1041.84C1172.31 1050.23 1187.58 1066.57 1193.11 1086.39C1194.56 1091.66 1195.35 1097.17 1195.35 1102.79V1212.85C1195.35 1308.83 1121.44 1389.6 1022.72 1410.49H1043.78C1166.58 1410.5 1266.82 1319.31 1266.82 1207.58Z" fill="#7FDBAE"/>
<path fill-rule="evenodd" clip-rule="evenodd" d="M984.346 816.234C941.764 692.294 851.533 583.141 763.935 583.141C676.338 583.141 586.107 692.294 543.46 816.234L763.935 885.092L984.346 816.234Z" fill="#FFD772"/>
<path fill-rule="evenodd" clip-rule="evenodd" d="M763.935 816.234H970.197H984.346C943.542 697.503 858.97 592.302 774.927 583.68C826.328 626.609 871.41 698.1 897.932 775.4H883.783H677.522H559.453C553.595 788.752 548.264 802.403 543.46 816.234H557.676H763.935Z" fill="#FBBA58"/>
<path fill-rule="evenodd" clip-rule="evenodd" d="M1061.28 937.841C1120.18 914.67 1140.32 870.84 1142.76 834.138C1143.75 818.989 1147.17 816.234 1122.62 816.234C883.518 816.234 644.35 816.234 405.249 816.234C380.635 816.234 384.123 818.989 385.109 834.138C387.545 870.84 407.684 914.67 466.587 937.841C492.057 947.84 524.767 953.947 566.492 953.947H961.376C1003.04 953.947 1035.81 947.84 1061.28 937.841Z" fill="#F5A96C"/>
<path fill-rule="evenodd" clip-rule="evenodd" d="M566.495 953.947H660.807L561.956 822.043L557.679 816.234L554.981 819.827L466.594 937.841C492.059 947.84 524.767 953.947 566.495 953.947Z" fill="#EB5468"/>
<path fill-rule="evenodd" clip-rule="evenodd" d="M660.805 953.947H763.936H867.066L805.728 872.038L763.936 816.234L722.143 872.038L660.805 953.947Z" fill="#EB5468"/>
<path fill-rule="evenodd" clip-rule="evenodd" d="M961.376 953.947C1003.04 953.947 1035.81 947.84 1061.28 937.841L972.895 819.827L970.197 816.234L965.852 822.043L867.066 953.947H961.376Z" fill="#EB5468"/>
<path fill-rule="evenodd" clip-rule="evenodd" d="M867.066 953.947H961.376C1003.04 953.947 1035.81 947.84 1061.28 937.841L1020.87 883.894C1000.08 919.76 954.861 951.013 867.198 953.767L867.066 953.947Z" fill="#E5384F"/>
<path fill-rule="evenodd" clip-rule="evenodd" d="M1020.87 883.894L1061.28 937.841C1120.18 914.67 1140.32 870.84 1142.76 834.138C1143.75 818.989 1147.17 816.234 1122.62 816.234H1034.5C1036.47 842.519 1035.15 859.405 1020.87 883.894Z" fill="#EA9A58"/>
<path d="M862.787 1023.79H862.525C852.908 1023.79 845.111 1030.88 845.111 1039.63C845.111 1048.38 852.908 1055.47 862.525 1055.47H862.787C872.404 1055.47 880.201 1048.38 880.201 1039.63C880.201 1030.88 872.404 1023.79 862.787 1023.79Z" fill="black"/>
<path d="M862.657 1118.63C853.04 1118.63 845.243 1125.72 845.243 1134.47V1358.34C845.243 1367.09 853.04 1374.19 862.657 1374.19C872.274 1374.19 880.071 1367.09 880.071 1358.34V1134.47C880.071 1125.72 872.274 1118.63 862.657 1118.63Z" fill="black"/>
<path d="M763.673 1260.18H763.936C773.553 1260.18 781.349 1253.09 781.349 1244.34C781.349 1235.59 773.553 1228.5 763.936 1228.5H763.673C754.056 1228.5 746.26 1235.59 746.26 1244.34C746.26 1253.09 754.056 1260.18 763.673 1260.18Z" fill="black"/>
<path d="M665.214 1473.76C674.831 1473.76 682.628 1466.66 682.628 1457.92V1026.76C682.628 1018.01 674.831 1010.91 665.214 1010.91C655.597 1010.91 647.8 1018.01 647.8 1026.76V1457.92C647.8 1466.66 655.597 1473.76 665.214 1473.76Z" fill="black"/>
<path d="M1193.37 1196.89H1193.11C1183.49 1196.89 1175.69 1203.98 1175.69 1212.73C1175.69 1221.48 1183.49 1228.57 1193.11 1228.57H1193.37C1202.99 1228.57 1210.78 1221.48 1210.78 1212.73C1210.78 1203.98 1202.99 1196.89 1193.37 1196.89Z" fill="black"/>
<path d="M334.961 1276.28H334.763C325.146 1276.28 317.447 1283.37 317.447 1292.12C317.447 1300.87 325.341 1307.96 334.958 1307.96C344.575 1307.96 352.372 1300.87 352.372 1292.12C352.372 1283.37 344.577 1276.28 334.961 1276.28Z" fill="black"/>
<path d="M1322.3 1191.74H1284.23V1118.82H1322.3C1331.92 1118.82 1339.71 1111.73 1339.71 1102.98C1339.71 1094.23 1331.92 1087.13 1322.3 1087.13H1283.48C1277.81 1046.34 1239.46 1014.69 1193.11 1014.69C1142.9 1014.69 1102.05 1051.88 1102.05 1097.59V1207.58C1102.05 1236.81 1075.91 1260.6 1043.78 1260.6H978.79V1114.39H1016.92C1026.54 1114.39 1034.34 1107.3 1034.34 1098.55C1034.34 1089.8 1026.54 1082.71 1016.92 1082.71H978.79V969.43C1138.73 962.848 1158.08 865.629 1160.14 835.076C1160.25 833.487 1160.38 832.045 1160.5 830.739C1161.13 823.946 1161.91 815.493 1154.74 808.408C1147.24 800.984 1136.23 800.395 1122.62 800.395H997C974.855 740.269 942.252 684.772 904.45 643.125C859.425 593.518 810.836 567.299 763.936 567.299C717.04 567.299 668.448 593.518 623.414 643.12C585.613 684.759 552.989 740.259 530.811 800.392H405.251C391.622 800.392 380.601 800.982 373.101 808.406C365.948 815.491 366.732 823.917 367.364 830.686C367.487 832.007 367.624 833.462 367.731 835.09C369.755 865.615 388.999 962.85 549.081 969.428V1031.3C549.081 1040.05 556.878 1047.15 566.495 1047.15C576.112 1047.15 583.909 1040.05 583.909 1031.3V969.789H746.522V1180.93C746.522 1189.68 754.319 1196.77 763.936 1196.77C773.553 1196.77 781.349 1189.68 781.349 1180.93V969.789H943.963V1617.09H781.349V1371.04C781.349 1362.29 773.553 1355.19 763.936 1355.19C754.319 1355.19 746.522 1362.29 746.522 1371.04V1617.09H583.909V1104.47C583.909 1095.72 576.112 1088.63 566.495 1088.63C556.878 1088.63 549.081 1095.72 549.081 1104.47V1143.9H510.948C501.331 1143.9 493.534 1150.99 493.534 1159.74C493.534 1168.49 501.331 1175.58 510.948 1175.58H549.081V1253.23H510.948C501.331 1253.23 493.534 1260.32 493.534 1269.07C493.534 1277.82 501.331 1284.91 510.948 1284.91H549.081V1383.7H484.096C452.51 1383.7 425.823 1359.42 425.823 1330.68V1134.71C425.823 1089 384.975 1051.81 334.763 1051.81C286.476 1051.81 246.864 1086.16 243.843 1129.41H205.572C195.955 1129.41 188.159 1136.5 188.159 1145.25C188.159 1154 195.955 1161.09 205.572 1161.09H243.639V1234.01H205.572C195.955 1234.01 188.159 1241.1 188.159 1249.85C188.159 1258.6 195.955 1265.69 205.572 1265.69H243.639V1330.68C243.639 1451.31 351.506 1549.44 484.096 1549.44C493.713 1549.44 501.509 1542.35 501.509 1533.6C501.509 1524.85 493.713 1517.76 484.096 1517.76C370.712 1517.76 278.466 1433.84 278.466 1330.68V1134.71C278.466 1112 294.807 1092.7 317.352 1086.01V1207.64C317.352 1216.39 325.148 1223.48 334.765 1223.48C344.382 1223.48 352.179 1216.39 352.179 1207.64V1086.02C374.685 1092.71 390.998 1112 390.998 1134.71V1330.68C390.998 1377.38 432.763 1415.38 484.098 1415.38H549.084V1622.45C549.084 1636.97 562.063 1648.77 578.013 1648.77H949.86C965.813 1648.77 978.79 1636.96 978.79 1622.45V1535.67H1024.56C1034.17 1535.67 1041.97 1528.58 1041.97 1519.83C1041.97 1511.08 1034.17 1503.99 1024.56 1503.99H978.79V1426.34H1043.78C1093.11 1426.34 1140.6 1412.74 1181.1 1387.02C1188.98 1382.01 1190.91 1372.14 1185.4 1364.96C1179.9 1357.79 1169.04 1356.03 1161.16 1361.04C1126.54 1383.03 1085.95 1394.65 1043.78 1394.65H978.79V1292.28H1043.78C1095.11 1292.28 1136.88 1254.28 1136.88 1207.58V1097.59C1136.88 1074.88 1153.19 1055.59 1175.69 1048.89V1128.24C1175.69 1136.99 1183.49 1144.09 1193.11 1144.09C1202.73 1144.09 1210.52 1136.99 1210.52 1128.24V1048.89C1233.07 1055.58 1249.41 1074.87 1249.41 1097.59V1207.58C1249.41 1246.82 1236.04 1284.5 1210.75 1316.53C1205.14 1323.64 1206.93 1333.54 1214.74 1338.64C1217.81 1340.65 1221.36 1341.61 1224.88 1341.61C1230.3 1341.61 1235.64 1339.32 1239.04 1335.01C1265.19 1301.89 1280.41 1263.59 1283.59 1223.42H1322.3C1331.92 1223.42 1339.71 1216.33 1339.71 1207.58C1339.71 1198.83 1331.92 1191.74 1322.3 1191.74ZM1122.62 832.076C1123.66 832.076 1124.6 832.083 1125.45 832.091C1125.43 832.444 1125.4 832.801 1125.38 833.164C1123.96 854.086 1114.57 893.393 1067.13 917.51L1003.13 832.076H1122.62ZM763.936 598.983C807.372 598.983 856.126 633.053 897.612 687.465C890.05 690.31 883.066 694.106 877.034 698.793C860.556 711.557 832.708 711.56 816.225 698.793C786.497 675.767 739.926 675.765 710.195 698.793C693.715 711.557 665.867 711.557 649.412 698.812C643.668 694.347 637.053 690.712 629.915 687.913C671.497 633.241 720.399 598.983 763.936 598.983ZM610.87 715.203C616.899 716.836 622.358 719.455 626.811 722.917C641.666 734.423 660.731 740.176 679.793 740.176C698.857 740.176 717.919 734.423 732.775 722.917C749.271 710.136 777.149 710.138 793.648 722.917C823.358 745.93 869.904 745.932 899.637 722.898C904.378 719.212 910.285 716.504 916.8 714.907C933.222 740.493 947.947 769.355 960.109 800.392H567.707C579.838 769.473 594.51 740.715 610.87 715.203ZM402.495 833.2C402.47 832.824 402.447 832.454 402.419 832.093C403.273 832.083 404.216 832.078 405.251 832.078H524.739L460.727 917.538C413.238 893.424 403.882 854.111 402.495 833.2ZM566.495 938.105C537.391 938.105 513.42 935.006 493.671 929.816L557.674 844.37L627.87 938.105H566.495ZM590.609 832.076H731.001L660.805 925.81L590.609 832.076ZM693.74 938.105L763.936 844.372L834.131 938.105H693.74ZM796.871 832.076H937.262L867.066 925.81L796.871 832.076ZM961.376 938.105H899.999L970.195 844.37L1034.19 929.804C1014.44 935.002 990.478 938.105 961.376 938.105Z" fill="black"/>
</g>
<path d="M354 344L353.8 260L312.6 329.2H298L257 261.8V344H226.6V204H253.4L305.8 291L357.4 204H384L384.4 344H354ZM411.416 275.2H468.016V300.2H411.416V275.2ZM555.691 344L532.091 311L507.691 344H473.691L515.091 289.8L475.091 236.4H510.091L532.891 267.8L556.291 236.4H589.491L549.491 289L591.091 344H555.691ZM606.236 236.4H637.436V344H606.236V236.4ZM621.836 221.4C616.103 221.4 611.436 219.733 607.836 216.4C604.236 213.067 602.436 208.933 602.436 204C602.436 199.067 604.236 194.933 607.836 191.6C611.436 188.267 616.103 186.6 621.836 186.6C627.569 186.6 632.236 188.2 635.836 191.4C639.436 194.6 641.236 198.6 641.236 203.4C641.236 208.6 639.436 212.933 635.836 216.4C632.236 219.733 627.569 221.4 621.836 221.4ZM735.792 338.8C732.726 341.067 728.926 342.8 724.392 344C719.992 345.067 715.326 345.6 710.392 345.6C697.592 345.6 687.659 342.333 680.592 335.8C673.659 329.267 670.192 319.667 670.192 307V262.8H653.592V238.8H670.192V212.6H701.392V238.8H728.192V262.8H701.392V306.6C701.392 311.133 702.526 314.667 704.792 317.2C707.192 319.6 710.526 320.8 714.792 320.8C719.726 320.8 723.926 319.467 727.392 316.8L735.792 338.8ZM753.306 195.6H784.506V344H753.306V195.6ZM813.463 236.4H844.663V344H813.463V236.4ZM829.063 221.4C823.329 221.4 818.663 219.733 815.063 216.4C811.463 213.067 809.663 208.933 809.663 204C809.663 199.067 811.463 194.933 815.063 191.6C818.663 188.267 823.329 186.6 829.063 186.6C834.796 186.6 839.463 188.2 843.063 191.4C846.663 194.6 848.463 198.6 848.463 203.4C848.463 208.6 846.663 212.933 843.063 216.4C839.463 219.733 834.796 221.4 829.063 221.4ZM248.6 396C254.8 396 260.167 397.033 264.7 399.1C269.3 401.167 272.833 404.1 275.3 407.9C277.767 411.7 279 416.2 279 421.4C279 426.533 277.767 431.033 275.3 434.9C272.833 438.7 269.3 441.633 264.7 443.7C260.167 445.7 254.8 446.7 248.6 446.7H234.5V466H218.3V396H248.6ZM247.7 433.5C252.567 433.5 256.267 432.467 258.8 430.4C261.333 428.267 262.6 425.267 262.6 421.4C262.6 417.467 261.333 414.467 258.8 412.4C256.267 410.267 252.567 409.2 247.7 409.2H234.5V433.5H247.7ZM304.366 419.3C306.232 416.7 308.732 414.733 311.866 413.4C315.066 412.067 318.732 411.4 322.866 411.4V425.8C321.132 425.667 319.966 425.6 319.366 425.6C314.899 425.6 311.399 426.867 308.866 429.4C306.332 431.867 305.066 435.6 305.066 440.6V466H289.466V412.2H304.366V419.3ZM357.253 466.8C351.586 466.8 346.486 465.633 341.953 463.3C337.486 460.9 333.986 457.6 331.453 453.4C328.92 449.2 327.653 444.433 327.653 439.1C327.653 433.767 328.92 429 331.453 424.8C333.986 420.6 337.486 417.333 341.953 415C346.486 412.6 351.586 411.4 357.253 411.4C362.92 411.4 367.986 412.6 372.453 415C376.92 417.333 380.42 420.6 382.953 424.8C385.486 429 386.753 433.767 386.753 439.1C386.753 444.433 385.486 449.2 382.953 453.4C380.42 457.6 376.92 460.9 372.453 463.3C367.986 465.633 362.92 466.8 357.253 466.8ZM357.253 454C361.253 454 364.52 452.667 367.053 450C369.653 447.267 370.953 443.633 370.953 439.1C370.953 434.567 369.653 430.967 367.053 428.3C364.52 425.567 361.253 424.2 357.253 424.2C353.253 424.2 349.953 425.567 347.353 428.3C344.753 430.967 343.453 434.567 343.453 439.1C343.453 443.633 344.753 447.267 347.353 450C349.953 452.667 353.253 454 357.253 454ZM451.98 391.8V466H437.08V459.8C433.214 464.467 427.614 466.8 420.28 466.8C415.214 466.8 410.614 465.667 406.48 463.4C402.414 461.133 399.214 457.9 396.88 453.7C394.547 449.5 393.38 444.633 393.38 439.1C393.38 433.567 394.547 428.7 396.88 424.5C399.214 420.3 402.414 417.067 406.48 414.8C410.614 412.533 415.214 411.4 420.28 411.4C427.147 411.4 432.514 413.567 436.38 417.9V391.8H451.98ZM422.98 454C426.914 454 430.18 452.667 432.78 450C435.38 447.267 436.68 443.633 436.68 439.1C436.68 434.567 435.38 430.967 432.78 428.3C430.18 425.567 426.914 424.2 422.98 424.2C418.98 424.2 415.68 425.567 413.08 428.3C410.48 430.967 409.18 434.567 409.18 439.1C409.18 443.633 410.48 447.267 413.08 450C415.68 452.667 418.98 454 422.98 454ZM520.619 412.2V466H505.819V459.6C503.752 461.933 501.285 463.733 498.419 465C495.552 466.2 492.452 466.8 489.119 466.8C482.052 466.8 476.452 464.767 472.319 460.7C468.185 456.633 466.119 450.6 466.119 442.6V412.2H481.719V440.3C481.719 448.967 485.352 453.3 492.619 453.3C496.352 453.3 499.352 452.1 501.619 449.7C503.885 447.233 505.019 443.6 505.019 438.8V412.2H520.619ZM561.071 466.8C555.338 466.8 550.171 465.633 545.571 463.3C541.038 460.9 537.471 457.6 534.871 453.4C532.338 449.2 531.071 444.433 531.071 439.1C531.071 433.767 532.338 429 534.871 424.8C537.471 420.6 541.038 417.333 545.571 415C550.171 412.6 555.338 411.4 561.071 411.4C566.738 411.4 571.671 412.6 575.871 415C580.138 417.333 583.238 420.7 585.171 425.1L573.071 431.6C570.271 426.667 566.238 424.2 560.971 424.2C556.904 424.2 553.538 425.533 550.871 428.2C548.204 430.867 546.871 434.5 546.871 439.1C546.871 443.7 548.204 447.333 550.871 450C553.538 452.667 556.904 454 560.971 454C566.304 454 570.338 451.533 573.071 446.6L585.171 453.2C583.238 457.467 580.138 460.8 575.871 463.2C571.671 465.6 566.738 466.8 561.071 466.8ZM629.634 463.4C628.101 464.533 626.201 465.4 623.934 466C621.734 466.533 619.401 466.8 616.934 466.8C610.534 466.8 605.568 465.167 602.034 461.9C598.568 458.633 596.834 453.833 596.834 447.5V425.4H588.534V413.4H596.834V400.3H612.434V413.4H625.834V425.4H612.434V447.3C612.434 449.567 613.001 451.333 614.134 452.6C615.334 453.8 617.001 454.4 619.134 454.4C621.601 454.4 623.701 453.733 625.434 452.4L629.634 463.4ZM662.331 466.8C656.665 466.8 651.565 465.633 647.031 463.3C642.565 460.9 639.065 457.6 636.531 453.4C633.998 449.2 632.731 444.433 632.731 439.1C632.731 433.767 633.998 429 636.531 424.8C639.065 420.6 642.565 417.333 647.031 415C651.565 412.6 656.665 411.4 662.331 411.4C667.998 411.4 673.065 412.6 677.531 415C681.998 417.333 685.498 420.6 688.031 424.8C690.565 429 691.831 433.767 691.831 439.1C691.831 444.433 690.565 449.2 688.031 453.4C685.498 457.6 681.998 460.9 677.531 463.3C673.065 465.633 667.998 466.8 662.331 466.8ZM662.331 454C666.331 454 669.598 452.667 672.131 450C674.731 447.267 676.031 443.633 676.031 439.1C676.031 434.567 674.731 430.967 672.131 428.3C669.598 425.567 666.331 424.2 662.331 424.2C658.331 424.2 655.031 425.567 652.431 428.3C649.831 430.967 648.531 434.567 648.531 439.1C648.531 443.633 649.831 447.267 652.431 450C655.031 452.667 658.331 454 662.331 454ZM720.359 466.8C715.892 466.8 711.525 466.267 707.259 465.2C702.992 464.067 699.592 462.667 697.059 461L702.259 449.8C704.659 451.333 707.559 452.6 710.959 453.6C714.359 454.533 717.692 455 720.959 455C727.559 455 730.859 453.367 730.859 450.1C730.859 448.567 729.959 447.467 728.159 446.8C726.359 446.133 723.592 445.567 719.859 445.1C715.459 444.433 711.825 443.667 708.959 442.8C706.092 441.933 703.592 440.4 701.459 438.2C699.392 436 698.359 432.867 698.359 428.8C698.359 425.4 699.325 422.4 701.259 419.8C703.259 417.133 706.125 415.067 709.859 413.6C713.659 412.133 718.125 411.4 723.259 411.4C727.059 411.4 730.825 411.833 734.559 412.7C738.359 413.5 741.492 414.633 743.959 416.1L738.759 427.2C734.025 424.533 728.859 423.2 723.259 423.2C719.925 423.2 717.425 423.667 715.759 424.6C714.092 425.533 713.259 426.733 713.259 428.2C713.259 429.867 714.159 431.033 715.959 431.7C717.759 432.367 720.625 433 724.559 433.6C728.959 434.333 732.559 435.133 735.359 436C738.159 436.8 740.592 438.3 742.659 440.5C744.725 442.7 745.759 445.767 745.759 449.7C745.759 453.033 744.759 456 742.759 458.6C740.759 461.2 737.825 463.233 733.959 464.7C730.159 466.1 725.625 466.8 720.359 466.8ZM805.404 411.4C813.737 411.4 820.137 413.4 824.604 417.4C829.071 421.333 831.304 427.3 831.304 435.3V466H816.704V459.3C813.771 464.3 808.304 466.8 800.304 466.8C796.171 466.8 792.571 466.1 789.504 464.7C786.504 463.3 784.204 461.367 782.604 458.9C781.004 456.433 780.204 453.633 780.204 450.5C780.204 445.5 782.071 441.567 785.804 438.7C789.604 435.833 795.437 434.4 803.304 434.4H815.704C815.704 431 814.671 428.4 812.604 426.6C810.537 424.733 807.437 423.8 803.304 423.8C800.437 423.8 797.604 424.267 794.804 425.2C792.071 426.067 789.737 427.267 787.804 428.8L782.204 417.9C785.137 415.833 788.637 414.233 792.704 413.1C796.837 411.967 801.071 411.4 805.404 411.4ZM804.204 456.3C806.871 456.3 809.237 455.7 811.304 454.5C813.371 453.233 814.837 451.4 815.704 449V443.5H805.004C798.604 443.5 795.404 445.6 795.404 449.8C795.404 451.8 796.171 453.4 797.704 454.6C799.304 455.733 801.471 456.3 804.204 456.3ZM860.323 419.3C862.189 416.7 864.689 414.733 867.823 413.4C871.023 412.067 874.689 411.4 878.823 411.4V425.8C877.089 425.667 875.923 425.6 875.323 425.6C870.856 425.6 867.356 426.867 864.823 429.4C862.289 431.867 861.023 435.6 861.023 440.6V466H845.423V412.2H860.323V419.3ZM924.654 463.4C923.121 464.533 921.221 465.4 918.954 466C916.754 466.533 914.421 466.8 911.954 466.8C905.554 466.8 900.587 465.167 897.054 461.9C893.587 458.633 891.854 453.833 891.854 447.5V425.4H883.554V413.4H891.854V400.3H907.454V413.4H920.854V425.4H907.454V447.3C907.454 449.567 908.021 451.333 909.154 452.6C910.354 453.8 912.021 454.4 914.154 454.4C916.621 454.4 918.721 453.733 920.454 452.4L924.654 463.4ZM984.451 439.3C984.451 439.5 984.351 440.9 984.151 443.5H943.451C944.184 446.833 945.917 449.467 948.651 451.4C951.384 453.333 954.784 454.3 958.851 454.3C961.651 454.3 964.117 453.9 966.251 453.1C968.451 452.233 970.484 450.9 972.351 449.1L980.651 458.1C975.584 463.9 968.184 466.8 958.451 466.8C952.384 466.8 947.017 465.633 942.351 463.3C937.684 460.9 934.084 457.6 931.551 453.4C929.017 449.2 927.751 444.433 927.751 439.1C927.751 433.833 928.984 429.1 931.451 424.9C933.984 420.633 937.417 417.333 941.751 415C946.151 412.6 951.051 411.4 956.451 411.4C961.717 411.4 966.484 412.533 970.751 414.8C975.017 417.067 978.351 420.333 980.751 424.6C983.217 428.8 984.451 433.7 984.451 439.3ZM956.551 423.2C953.017 423.2 950.051 424.2 947.651 426.2C945.251 428.2 943.784 430.933 943.251 434.4H969.751C969.217 431 967.751 428.3 965.351 426.3C962.951 424.233 960.017 423.2 956.551 423.2ZM1012.94 466.8C1008.47 466.8 1004.1 466.267 999.837 465.2C995.57 464.067 992.17 462.667 989.637 461L994.837 449.8C997.237 451.333 1000.14 452.6 1003.54 453.6C1006.94 454.533 1010.27 455 1013.54 455C1020.14 455 1023.44 453.367 1023.44 450.1C1023.44 448.567 1022.54 447.467 1020.74 446.8C1018.94 446.133 1016.17 445.567 1012.44 445.1C1008.04 444.433 1004.4 443.667 1001.54 442.8C998.67 441.933 996.17 440.4 994.037 438.2C991.97 436 990.937 432.867 990.937 428.8C990.937 425.4 991.903 422.4 993.837 419.8C995.837 417.133 998.703 415.067 1002.44 413.6C1006.24 412.133 1010.7 411.4 1015.84 411.4C1019.64 411.4 1023.4 411.833 1027.14 412.7C1030.94 413.5 1034.07 414.633 1036.54 416.1L1031.34 427.2C1026.6 424.533 1021.44 423.2 1015.84 423.2C1012.5 423.2 1010 423.667 1008.34 424.6C1006.67 425.533 1005.84 426.733 1005.84 428.2C1005.84 429.867 1006.74 431.033 1008.54 431.7C1010.34 432.367 1013.2 433 1017.14 433.6C1021.54 434.333 1025.14 435.133 1027.94 436C1030.74 436.8 1033.17 438.3 1035.24 440.5C1037.3 442.7 1038.34 445.767 1038.34 449.7C1038.34 453.033 1037.34 456 1035.34 458.6C1033.34 461.2 1030.4 463.233 1026.54 464.7C1022.74 466.1 1018.2 466.8 1012.94 466.8ZM1069.66 411.4C1078 411.4 1084.4 413.4 1088.86 417.4C1093.33 421.333 1095.56 427.3 1095.56 435.3V466H1080.96V459.3C1078.03 464.3 1072.56 466.8 1064.56 466.8C1060.43 466.8 1056.83 466.1 1053.76 464.7C1050.76 463.3 1048.46 461.367 1046.86 458.9C1045.26 456.433 1044.46 453.633 1044.46 450.5C1044.46 445.5 1046.33 441.567 1050.06 438.7C1053.86 435.833 1059.7 434.4 1067.56 434.4H1079.96C1079.96 431 1078.93 428.4 1076.86 426.6C1074.8 424.733 1071.7 423.8 1067.56 423.8C1064.7 423.8 1061.86 424.267 1059.06 425.2C1056.33 426.067 1054 427.267 1052.06 428.8L1046.46 417.9C1049.4 415.833 1052.9 414.233 1056.96 413.1C1061.1 411.967 1065.33 411.4 1069.66 411.4ZM1068.46 456.3C1071.13 456.3 1073.5 455.7 1075.56 454.5C1077.63 453.233 1079.1 451.4 1079.96 449V443.5H1069.26C1062.86 443.5 1059.66 445.6 1059.66 449.8C1059.66 451.8 1060.43 453.4 1061.96 454.6C1063.56 455.733 1065.73 456.3 1068.46 456.3ZM1142.38 411.4C1149.05 411.4 1154.41 413.4 1158.48 417.4C1162.61 421.4 1164.68 427.333 1164.68 435.2V466H1149.08V437.6C1149.08 433.333 1148.15 430.167 1146.28 428.1C1144.41 425.967 1141.71 424.9 1138.18 424.9C1134.25 424.9 1131.11 426.133 1128.78 428.6C1126.45 431 1125.28 434.6 1125.28 439.4V466H1109.68V412.2H1124.58V418.5C1126.65 416.233 1129.21 414.5 1132.28 413.3C1135.35 412.033 1138.71 411.4 1142.38 411.4ZM1200.52 411.4C1208.85 411.4 1215.25 413.4 1219.72 417.4C1224.19 421.333 1226.42 427.3 1226.42 435.3V466H1211.82V459.3C1208.89 464.3 1203.42 466.8 1195.42 466.8C1191.29 466.8 1187.69 466.1 1184.62 464.7C1181.62 463.3 1179.32 461.367 1177.72 458.9C1176.12 456.433 1175.32 453.633 1175.32 450.5C1175.32 445.5 1177.19 441.567 1180.92 438.7C1184.72 435.833 1190.55 434.4 1198.42 434.4H1210.82C1210.82 431 1209.79 428.4 1207.72 426.6C1205.65 424.733 1202.55 423.8 1198.42 423.8C1195.55 423.8 1192.72 424.267 1189.92 425.2C1187.19 426.067 1184.85 427.267 1182.92 428.8L1177.32 417.9C1180.25 415.833 1183.75 414.233 1187.82 413.1C1191.95 411.967 1196.19 411.4 1200.52 411.4ZM1199.32 456.3C1201.99 456.3 1204.35 455.7 1206.42 454.5C1208.49 453.233 1209.95 451.4 1210.82 449V443.5H1200.12C1193.72 443.5 1190.52 445.6 1190.52 449.8C1190.52 451.8 1191.29 453.4 1192.82 454.6C1194.42 455.733 1196.59 456.3 1199.32 456.3ZM1240.54 391.8H1256.14V466H1240.54V391.8ZM1323.32 439.3C1323.32 439.5 1323.22 440.9 1323.02 443.5H1282.32C1283.05 446.833 1284.78 449.467 1287.52 451.4C1290.25 453.333 1293.65 454.3 1297.72 454.3C1300.52 454.3 1302.98 453.9 1305.12 453.1C1307.32 452.233 1309.35 450.9 1311.22 449.1L1319.52 458.1C1314.45 463.9 1307.05 466.8 1297.32 466.8C1291.25 466.8 1285.88 465.633 1281.22 463.3C1276.55 460.9 1272.95 457.6 1270.42 453.4C1267.88 449.2 1266.62 444.433 1266.62 439.1C1266.62 433.833 1267.85 429.1 1270.32 424.9C1272.85 420.633 1276.28 417.333 1280.62 415C1285.02 412.6 1289.92 411.4 1295.32 411.4C1300.58 411.4 1305.35 412.533 1309.62 414.8C1313.88 417.067 1317.22 420.333 1319.62 424.6C1322.08 428.8 1323.32 433.7 1323.32 439.3ZM1295.42 423.2C1291.88 423.2 1288.92 424.2 1286.52 426.2C1284.12 428.2 1282.65 430.933 1282.12 434.4H1308.62C1308.08 431 1306.62 428.3 1304.22 426.3C1301.82 424.233 1298.88 423.2 1295.42 423.2ZM1351.8 466.8C1347.34 466.8 1342.97 466.267 1338.7 465.2C1334.44 464.067 1331.04 462.667 1328.5 461L1333.7 449.8C1336.1 451.333 1339 452.6 1342.4 453.6C1345.8 454.533 1349.14 455 1352.4 455C1359 455 1362.3 453.367 1362.3 450.1C1362.3 448.567 1361.4 447.467 1359.6 446.8C1357.8 446.133 1355.04 445.567 1351.3 445.1C1346.9 444.433 1343.27 443.667 1340.4 442.8C1337.54 441.933 1335.04 440.4 1332.9 438.2C1330.84 436 1329.8 432.867 1329.8 428.8C1329.8 425.4 1330.77 422.4 1332.7 419.8C1334.7 417.133 1337.57 415.067 1341.3 413.6C1345.1 412.133 1349.57 411.4 1354.7 411.4C1358.5 411.4 1362.27 411.833 1366 412.7C1369.8 413.5 1372.94 414.633 1375.4 416.1L1370.2 427.2C1365.47 424.533 1360.3 423.2 1354.7 423.2C1351.37 423.2 1348.87 423.667 1347.2 424.6C1345.54 425.533 1344.7 426.733 1344.7 428.2C1344.7 429.867 1345.6 431.033 1347.4 431.7C1349.2 432.367 1352.07 433 1356 433.6C1360.4 434.333 1364 435.133 1366.8 436C1369.6 436.8 1372.04 438.3 1374.1 440.5C1376.17 442.7 1377.2 445.767 1377.2 449.7C1377.2 453.033 1376.2 456 1374.2 458.6C1372.2 461.2 1369.27 463.233 1365.4 464.7C1361.6 466.1 1357.07 466.8 1351.8 466.8Z" fill="black"/>
</g>
<defs>
<clipPath id="clip0">
<rect width="1590" height="1300" fill="white"/>
</clipPath>
<clipPath id="clip1">
<rect width="1658" height="1710" fill="white" transform="translate(-34 650)"/>
</clipPath>
</defs>
</svg>
