<svg height="512" viewBox="0 0 512 512" width="512" xmlns="http://www.w3.org/2000/svg"><g id="filled_outline" data-name="filled outline"><circle cx="280" cy="160" fill="#8eb23e" r="32"/><path d="m88 400v-40c0-110.457 89.543-200 200-200 110.457 0 200 89.543 200 200v8a32 32 0 0 1 -32 32z" fill="#dcac56"/><circle cx="408" cy="264" fill="#8eb23e" r="56"/><circle cx="408" cy="352" fill="#7a4922" r="48"/><circle cx="426.944" cy="309.056" fill="#027e2a" r="21.056"/><path d="m408 304a8 8 0 0 1 -8-8v-8a8 8 0 0 1 16 0v8a8 8 0 0 1 -8 8z" fill="#7fa038"/><path d="m408 248a8 8 0 0 1 -8-8v-8a8 8 0 0 1 16 0v8a8 8 0 0 1 -8 8z" fill="#7fa038"/><path d="m440 272h-8a8 8 0 0 1 0-16h8a8 8 0 0 1 0 16z" fill="#7fa038"/><rect fill="#7a4922" height="56" rx="10" transform="matrix(.707 .707 -.707 .707 249.223 -200.791)" width="80" x="326.988" y="172.444"/><path d="m346.811 137.642a52.522 52.522 0 1 1 -98.811 35.644z" fill="#cb2527"/><circle cx="232" cy="168" fill="#7fa038" r="48"/><path d="m199.965 194.292a34.667 34.667 0 1 0 -39.725-56.825c-.3.209-.584.429-.874.645a34.611 34.611 0 0 0 -45.935.719 34.661 34.661 0 0 0 -49.484 34.593 34.616 34.616 0 0 0 -16.447 42.895c-.3.2-.607.391-.906.6a34.667 34.667 0 0 0 39.726 56.825z" fill="#027e2a"/><circle cx="184" cy="160" fill="#ea2b2d" r="32"/><path d="m456 400a32 32 0 0 1 -32-32v-8c0-110.457-89.543-200-200-200-110.457 0-200 89.543-200 200a40 40 0 0 0 40 40z" fill="#f3be5f"/><g fill="#dcac56"><circle cx="256" cy="232" r="8"/><circle cx="288" cy="208" r="8"/><circle cx="328" cy="239.243" r="8"/><circle cx="224" cy="208" r="8"/><circle cx="224" cy="264" r="8"/><circle cx="160" cy="264" r="8"/><circle cx="288" cy="264" r="8"/><circle cx="192" cy="232" r="8"/><circle cx="128" cy="240" r="8"/><circle cx="160" cy="208" r="8"/><path d="m88 376h-16a8 8 0 0 1 0-16h16a8 8 0 0 1 0 16z"/><path d="m160 376h-40a8 8 0 0 1 0-16h40a8 8 0 0 1 0 16z"/></g><path d="m232 128a27.174 27.174 0 0 1 -22.656-12.125 8 8 0 1 1 13.312-8.875 11.231 11.231 0 0 0 18.688 0 8 8 0 1 1 13.312 8.875 27.174 27.174 0 0 1 -22.656 12.125z" fill="#ffc864"/><path d="m171.754 137.179a27.171 27.171 0 0 1 -17.442-6.341 8 8 0 0 1 10.26-12.277 11.229 11.229 0 0 0 17.924-5.285 8 8 0 1 1 15.279 4.747 27.255 27.255 0 0 1 -26.021 19.156z" fill="#ffc864"/><path d="m432 272h8a8 8 0 0 0 0-16h-8a8 8 0 0 0 0 16z"/><path d="m64 408h392a40.045 40.045 0 0 0 40-40v-8a205.881 205.881 0 0 0 -21.937-93.073c-.05-.1-.1-.2-.157-.3l-1.926-3.469a63.982 63.982 0 0 0 -55.088-62.545 17.927 17.927 0 0 0 -3.235-4.414l-42.427-42.424a17.938 17.938 0 0 0 -13.715-5.217 60.185 60.185 0 0 0 -3.178-13.63 8 8 0 0 0 -10.24-4.811l-29.085 10.491a39.74 39.74 0 0 0 -35.012-20.608 40.16 40.16 0 0 0 -14.882 2.879 55.971 55.971 0 0 0 -10.963-6.3c.167-.235.341-.464.5-.7a8 8 0 1 0 -13.311-8.879 11.063 11.063 0 0 1 -5.844 4.437h-7a11.063 11.063 0 0 1 -5.844-4.437 8 8 0 1 0 -13.312 8.875c.158.237.33.463.494.694a55.9 55.9 0 0 0 -10.988 6.3c-.864-.347-1.74-.668-2.633-.955a27.212 27.212 0 0 0 1.558-3.892 8 8 0 1 0 -15.279-4.747 11.053 11.053 0 0 1 -4.35 5.909l-6.714 1.98a11.064 11.064 0 0 1 -6.86-2.6 7.99 7.99 0 0 0 -13.114 5.795 42.654 42.654 0 0 0 -39.112 5.109l-.279.2a42.648 42.648 0 0 0 -56.262 39.332l-.283.195a42.651 42.651 0 0 0 -17.246 44.1 42.677 42.677 0 0 0 -6.791 56.491 43.069 43.069 0 0 0 3.224 4.047 206.792 206.792 0 0 0 -18.709 86.167 48.054 48.054 0 0 0 48 48zm371.725-27.182a23.845 23.845 0 0 1 -3.725-12.818v-8a209.518 209.518 0 0 0 -1.181-22.155 28.877 28.877 0 0 0 12.423-4.748 39.952 39.952 0 0 1 -7.517 47.721zm-7.214-58.81a206.185 206.185 0 0 0 -6.311-25.108 13.049 13.049 0 1 1 6.307 25.111zm51.489 37.992v8a23.985 23.985 0 0 1 -31.609 22.756 55.946 55.946 0 0 0 5.5-70.847 28.879 28.879 0 0 0 2.109-10.853c0-.872-.046-1.733-.121-2.585a63.766 63.766 0 0 0 10.805-16.908 190.226 190.226 0 0 1 13.316 70.437zm-24-96a47.708 47.708 0 0 1 -7.438 25.667 29.02 29.02 0 0 0 -31.815-7.819 207.806 207.806 0 0 0 -22.326-40.955l5.579-5.579v4.686a8 8 0 0 0 16 0v-8a8 8 0 0 0 -5.2-7.486l2.857-2.857a17.885 17.885 0 0 0 3.417-4.807 47.72 47.72 0 0 1 38.926 47.15zm-96.084-98.912 42.427 42.427a2 2 0 0 1 0 2.828l-17.688 17.688a209.792 209.792 0 0 0 -38.709-36.425 60.743 60.743 0 0 0 11.188-26.554 2 2 0 0 1 2.782.036zm-27.293 17.6a207.257 207.257 0 0 0 -37.133-18.028l45.825-16.53a44.72 44.72 0 0 1 -8.692 34.556zm-172.531-20.63c-.057-.681-.092-1.367-.092-2.058a24 24 0 0 1 46.865-7.289 206.563 206.563 0 0 0 -46.773 9.347zm63.1-10.048a39.923 39.923 0 0 0 -10-19.311 39.987 39.987 0 0 1 57.172 24.013l-.869.314a207.922 207.922 0 0 0 -45.495-5.026c-.269 0-.535.009-.8.01zm76.4-5.841-14.151 5.1a55.851 55.851 0 0 0 -7.465-15.181c.667-.054 1.339-.092 2.018-.092a24.2 24.2 0 0 1 19.606 10.173zm-259.392 94.511a26.491 26.491 0 0 1 10.98-17.208c.15-.105.3-.2.457-.3l.235-.153a8 8 0 0 0 3.115-9.509 26.615 26.615 0 0 1 12.668-33 8 8 0 0 0 4.256-7.85 26.66 26.66 0 0 1 38.068-26.615 8 8 0 0 0 8.834-1.3 26.99 26.99 0 0 1 2.7-2.171 26.649 26.649 0 0 1 27.457-1.868 39.988 39.988 0 0 0 -4.227 26.994 209.276 209.276 0 0 0 -101.851 90.109 26.459 26.459 0 0 1 -2.692-17.129zm183.8-72.68a191.491 191.491 0 0 1 53.463 7.582c.138.047.279.087.42.126 79.722 23.347 138.117 97.123 138.117 184.292v8a39.792 39.792 0 0 0 8.019 24h-360.019a32.036 32.036 0 0 1 -32-32c0-105.869 86.131-192 192-192z"/><circle cx="256" cy="232" r="8"/><circle cx="288" cy="208" r="8"/><circle cx="328" cy="239.243" r="8"/><circle cx="224" cy="208" r="8"/><circle cx="224" cy="264" r="8"/><circle cx="160" cy="264" r="8"/><circle cx="288" cy="264" r="8"/><circle cx="192" cy="232" r="8"/><circle cx="128" cy="240" r="8"/><circle cx="160" cy="208" r="8"/><path d="m72 376h16a8 8 0 0 0 0-16h-16a8 8 0 0 0 0 16z"/><path d="m120 376h40a8 8 0 0 0 0-16h-40a8 8 0 0 0 0 16z"/></g></svg>