<svg width="1430" height="1300" viewBox="0 0 1430 1300" fill="none" xmlns="http://www.w3.org/2000/svg">
<path fill-rule="evenodd" clip-rule="evenodd" d="M952.505 1013.58V852.427V638.592V464.775H839.058H715H590.942H477.491V712.149V843.573V1000.4V1161.55V1268.36C477.491 1275.27 483.666 1280.96 491.347 1280.96H938.652C946.252 1280.96 952.508 1275.27 952.508 1268.36V1013.58H952.505Z" fill="#A7E9A6"/>
<path fill-rule="evenodd" clip-rule="evenodd" d="M378.375 1000.4C328.498 1000.4 287.329 962.978 287.329 917.632V682.063C287.329 637.655 247.507 601.453 198.739 601.453C149.893 601.453 110.071 637.655 110.071 682.063V694.731V820.468V917.632C110.071 1051.94 230.646 1161.55 378.375 1161.55H477.494L531.251 1092.82L477.494 1000.4H378.375V1000.4Z" fill="#A7E9A6"/>
<path fill-rule="evenodd" clip-rule="evenodd" d="M1051.63 1013.58C1199.35 1013.58 1319.93 903.96 1319.93 769.659V643.922V637.444C1319.93 593.036 1280.11 556.834 1231.26 556.834C1182.41 556.834 1142.67 593.036 1142.67 637.444V769.661C1142.67 815.077 1101.5 852.432 1051.63 852.432H952.506L901.521 926.204L952.506 1013.58H1051.63V1013.58Z" fill="#A7E9A6"/>
<path fill-rule="evenodd" clip-rule="evenodd" d="M875.713 603.253V1280.96H938.652C946.252 1280.96 952.508 1275.27 952.508 1268.36V1013.58V852.427V638.592V464.775H839.061H715H590.942H477.491V522.283H790.209C847.688 522.283 875.713 546.394 875.713 603.253V603.253Z" fill="#7FDBAE"/>
<path fill-rule="evenodd" clip-rule="evenodd" d="M1319.93 769.656V637.439C1319.93 593.031 1280.11 556.829 1231.26 556.829C1213.13 556.829 1196.19 561.866 1182.1 570.431C1206.24 580.508 1224.61 600.155 1231.26 623.979C1233 630.312 1233.95 636.934 1233.95 643.7V775.988C1233.95 891.363 1145.05 988.454 1026.29 1013.57H1051.63C1199.35 1013.58 1319.93 903.959 1319.93 769.656Z" fill="#7FDBAE"/>
<path fill-rule="evenodd" clip-rule="evenodd" d="M477.494 1161.55V1000.4H378.375V1056.18C378.375 1098.79 373.942 1118.8 321.214 1118.8C269.991 1118.8 222.094 1105.63 181.322 1082.81C230.406 1131.18 300.63 1161.55 378.375 1161.55H477.494Z" fill="#7FDBAE"/>
<path fill-rule="evenodd" clip-rule="evenodd" d="M980.136 299.236C928.913 150.252 820.373 19.043 715 19.043C609.627 19.043 501.086 150.252 449.785 299.236L715 382.007L980.136 299.236Z" fill="#FFD772"/>
<path fill-rule="evenodd" clip-rule="evenodd" d="M715 299.236H963.116H980.136C931.053 156.513 829.319 30.0549 728.222 19.6904C790.052 71.2943 844.284 157.231 876.188 250.151H859.167H611.051H469.023C461.976 266.2 455.564 282.61 449.785 299.236H466.886H715Z" fill="#FBBA58"/>
<path fill-rule="evenodd" clip-rule="evenodd" d="M1072.68 445.415C1143.54 417.562 1167.77 364.876 1170.7 320.757C1171.88 302.547 1176 299.236 1146.47 299.236C858.849 299.236 571.148 299.236 283.528 299.236C253.92 299.236 258.115 302.547 259.302 320.757C262.232 364.876 286.458 417.562 357.313 445.415C387.952 457.435 427.299 464.775 477.491 464.775H952.506C1002.62 464.775 1042.05 457.435 1072.68 445.415Z" fill="#F5A96C"/>
<path fill-rule="evenodd" clip-rule="evenodd" d="M477.494 464.775H590.945L472.034 306.219L466.89 299.236L463.644 303.555L357.321 445.415C387.955 457.435 427.299 464.775 477.494 464.775V464.775Z" fill="#EB5468"/>
<path fill-rule="evenodd" clip-rule="evenodd" d="M590.942 464.775H715H839.058L765.273 366.316L715 299.236L664.727 366.316L590.942 464.775Z" fill="#EB5468"/>
<path fill-rule="evenodd" clip-rule="evenodd" d="M952.505 464.775C1002.62 464.775 1042.05 457.435 1072.68 445.415L966.361 303.555L963.116 299.236L957.89 306.219L839.058 464.775H952.505Z" fill="#EB5468"/>
<path fill-rule="evenodd" clip-rule="evenodd" d="M839.058 464.775H952.505C1002.62 464.775 1042.05 457.435 1072.68 445.415L1024.08 380.567C999.058 423.681 944.668 461.249 839.217 464.56L839.058 464.775Z" fill="#E5384F"/>
<path fill-rule="evenodd" clip-rule="evenodd" d="M1024.08 380.567L1072.68 445.415C1143.54 417.562 1167.77 364.876 1170.7 320.757C1171.88 302.547 1176 299.236 1146.47 299.236H1040.46C1042.84 330.832 1041.26 351.129 1024.08 380.567Z" fill="#EA9A58"/>
<path d="M833.595 1096.82H833.91C845.479 1096.82 854.858 1088.29 854.858 1077.78C854.858 1067.26 845.479 1058.73 833.91 1058.73H833.595C822.026 1058.73 812.647 1067.26 812.647 1077.78C812.647 1088.29 822.026 1096.82 833.595 1096.82Z" fill="black"/>
<path d="M838.992 1160.93L838.676 1160.86C827.465 1158.31 816.081 1164.51 813.274 1174.71C810.467 1184.91 817.29 1195.25 828.515 1197.81L828.831 1197.88C830.534 1198.26 832.244 1198.45 833.928 1198.45C843.312 1198.45 851.853 1192.67 854.233 1184.02C857.04 1173.82 850.217 1163.48 838.992 1160.93V1160.93Z" fill="black"/>
<path d="M833.91 548.727H833.595C822.026 548.727 812.647 557.253 812.647 567.77C812.647 578.287 822.026 586.813 833.595 586.813H833.91C845.479 586.813 854.858 578.287 854.858 567.77C854.858 557.253 845.479 548.727 833.91 548.727Z" fill="black"/>
<path d="M833.754 662.733C822.185 662.733 812.807 671.26 812.807 681.776V950.886C812.807 961.403 822.185 969.929 833.754 969.929C845.322 969.929 854.701 961.403 854.701 950.886V681.776C854.701 671.26 845.322 662.733 833.754 662.733Z" fill="black"/>
<path d="M714.685 832.891H715C726.569 832.891 735.947 824.365 735.947 813.848C735.947 803.331 726.569 794.805 715 794.805H714.685C703.116 794.805 693.737 803.331 693.737 813.848C693.737 824.365 703.116 832.891 714.685 832.891Z" fill="black"/>
<path d="M596.246 1089.62C607.814 1089.62 617.193 1081.09 617.193 1070.58V552.297C617.193 541.78 607.814 533.254 596.246 533.254C584.677 533.254 575.298 541.78 575.298 552.297V1070.58C575.298 1081.09 584.677 1089.62 596.246 1089.62V1089.62Z" fill="black"/>
<path d="M590.849 1165.2L591.165 1165.27C592.869 1165.66 594.578 1165.85 596.262 1165.85C605.647 1165.85 614.187 1160.07 616.567 1151.42C619.374 1141.21 612.551 1130.88 601.326 1128.32L601.01 1128.25C589.802 1125.7 578.415 1131.9 575.608 1142.11C572.801 1152.31 579.627 1162.65 590.849 1165.2Z" fill="black"/>
<path d="M1231.58 756.803H1231.26C1219.69 756.803 1210.31 765.329 1210.31 775.846C1210.31 786.363 1219.69 794.889 1231.26 794.889H1231.58C1243.15 794.889 1252.52 786.363 1252.52 775.846C1252.52 765.329 1243.15 756.803 1231.58 756.803Z" fill="black"/>
<path d="M198.977 852.239H198.74C187.171 852.239 177.91 860.765 177.91 871.282C177.91 881.798 187.406 890.324 198.974 890.324C210.543 890.324 219.921 881.798 219.921 871.282C219.921 860.765 210.545 852.239 198.977 852.239V852.239Z" fill="black"/>
<path d="M1386.67 750.613H1340.88V662.962H1386.67C1398.24 662.962 1407.61 654.436 1407.61 643.919C1407.61 633.402 1398.24 624.876 1386.67 624.876H1339.97C1333.15 575.842 1287.02 537.789 1231.26 537.789C1170.86 537.789 1121.72 582.494 1121.72 637.444V769.658C1121.72 804.797 1090.28 833.386 1051.63 833.386H973.453V657.637H1019.32C1030.89 657.637 1040.27 649.111 1040.27 638.595C1040.27 628.078 1030.89 619.552 1019.32 619.552H973.453V483.387C1165.84 475.475 1189.12 358.612 1191.61 321.885C1191.73 319.975 1191.89 318.241 1192.04 316.672C1192.79 308.506 1193.73 298.345 1185.11 289.829C1176.09 280.904 1162.84 280.196 1146.47 280.196H995.358C968.719 207.921 929.5 141.21 884.028 91.1473C829.867 31.5174 771.418 0 715 0C658.588 0 600.137 31.5174 545.964 91.1422C500.492 141.195 461.248 207.909 434.569 280.193H283.531C267.136 280.193 253.878 280.902 244.857 289.826C236.252 298.342 237.196 308.471 237.955 316.608C238.103 318.195 238.268 319.945 238.397 321.902C240.832 358.594 263.98 475.478 456.547 483.384V557.763C456.547 568.28 465.926 576.806 477.494 576.806C489.063 576.806 498.442 568.28 498.442 557.763V483.818H694.053V737.626C694.053 748.142 703.432 756.669 715 756.669C726.569 756.669 735.947 748.142 735.947 737.626V483.818H931.559V1261.91H735.947V966.144C735.947 955.627 726.569 947.101 715 947.101C703.432 947.101 694.053 955.627 694.053 966.144V1261.91H498.442V645.717C498.442 635.2 489.063 626.674 477.494 626.674C465.926 626.674 456.547 635.2 456.547 645.717V693.106H410.675C399.107 693.106 389.728 701.632 389.728 712.149C389.728 722.665 399.107 731.192 410.675 731.192H456.547V824.53H410.675C399.107 824.53 389.728 833.056 389.728 843.573C389.728 854.09 399.107 862.616 410.675 862.616H456.547V981.363H378.375C340.379 981.363 308.277 952.179 308.277 917.635V682.066C308.277 627.115 259.14 582.413 198.739 582.413C140.654 582.413 93.0032 623.703 89.3695 675.69H43.333C31.7645 675.69 22.3857 684.216 22.3857 694.733C22.3857 705.25 31.7645 713.776 43.333 713.776H89.1237V801.427H43.333C31.7645 801.427 22.3857 809.953 22.3857 820.47C22.3857 830.987 31.7645 839.513 43.333 839.513H89.1237V917.635C89.1237 1062.63 218.879 1180.6 378.375 1180.6C389.943 1180.6 399.322 1172.07 399.322 1161.55C399.322 1151.04 389.943 1142.51 378.375 1142.51C241.983 1142.51 131.018 1041.63 131.018 917.635V682.066C131.018 654.763 150.675 631.566 177.795 623.528V769.729C177.795 780.246 187.174 788.772 198.742 788.772C210.311 788.772 219.689 780.246 219.689 769.729V623.535C246.762 631.582 266.385 654.771 266.385 682.066V917.635C266.385 973.774 316.625 1019.45 378.378 1019.45H456.55V1268.36C456.55 1285.81 472.163 1300 491.35 1300H938.653C957.843 1300 973.453 1285.81 973.453 1268.36V1164.04H1028.51C1040.08 1164.04 1049.46 1155.52 1049.46 1145C1049.46 1134.48 1040.08 1125.96 1028.51 1125.96H973.453V1032.62H1051.63C1110.98 1032.62 1168.1 1016.27 1216.81 985.359C1226.3 979.339 1228.62 967.469 1221.99 958.844C1215.37 950.219 1202.31 948.109 1192.83 954.131C1151.18 980.563 1102.36 994.533 1051.63 994.533H973.453V871.47H1051.63C1113.38 871.47 1163.62 825.797 1163.62 769.656V637.442C1163.62 610.147 1183.24 586.958 1210.31 578.909V674.291C1210.31 684.808 1219.69 693.334 1231.26 693.334C1242.83 693.334 1252.21 684.808 1252.21 674.291V578.901C1279.33 586.942 1298.98 610.137 1298.98 637.442V769.656C1298.98 816.827 1282.91 862.116 1252.49 900.626C1245.74 909.167 1247.89 921.065 1257.28 927.2C1260.98 929.614 1265.25 930.777 1269.48 930.777C1276 930.777 1282.42 928.02 1286.51 922.84C1317.97 883.022 1336.28 836.987 1340.1 788.699H1386.67C1398.24 788.699 1407.62 780.173 1407.62 769.656C1407.62 759.139 1398.24 750.613 1386.67 750.613V750.613ZM1146.47 318.279C1147.72 318.279 1148.85 318.287 1149.88 318.297C1149.85 318.721 1149.82 319.15 1149.79 319.587C1148.09 344.736 1136.78 391.986 1079.71 420.977L1002.73 318.279H1146.47ZM715 38.0859C767.251 38.0859 825.898 79.041 875.803 144.447C866.706 147.867 858.305 152.43 851.048 158.064C831.227 173.408 797.728 173.41 777.901 158.064C742.139 130.386 686.118 130.383 650.354 158.064C630.53 173.408 597.031 173.408 577.237 158.087C570.327 152.72 562.37 148.35 553.784 144.986C603.804 79.267 662.629 38.0859 715 38.0859V38.0859ZM530.874 177.79C538.127 179.753 544.693 182.901 550.05 187.063C567.92 200.893 590.853 207.81 613.783 207.81C636.716 207.81 659.646 200.893 677.516 187.063C697.36 171.699 730.895 171.702 750.742 187.063C786.481 214.726 842.471 214.729 878.238 187.04C883.941 182.609 891.047 179.354 898.884 177.435C918.638 208.19 936.351 242.884 950.981 280.193H478.952C493.546 243.026 511.194 208.457 530.874 177.79V177.79ZM280.216 319.63C280.185 319.178 280.157 318.734 280.124 318.299C281.152 318.287 282.285 318.282 283.531 318.282H427.266L350.264 421.01C293.139 392.024 281.883 344.767 280.216 319.63ZM477.494 445.732C442.485 445.732 413.65 442.008 389.893 435.769L466.884 333.056L551.324 445.732H477.494ZM506.502 318.279H675.382L590.942 430.953L506.502 318.279ZM630.56 445.732L715 333.059L799.44 445.732H630.56ZM754.618 318.279H923.498L839.058 430.953L754.618 318.279ZM952.506 445.732H878.674L963.113 333.056L1040.09 435.754C1016.34 442.003 987.513 445.732 952.506 445.732Z" fill="black"/>
</svg>
